# Blender v2.82 (sub 7) OBJ File: 'KmceStuffnumber3.blend'
# www.blender.org
mtllib Door.mtl
o Cube.338_Door
v -1.500000 0.000000 1.000000
v -1.500000 3.000000 1.000000
v 1.500000 0.000000 1.000000
v 1.500000 3.000000 1.000000
v 0.000000 0.000000 1.000000
v 0.000000 3.000000 1.000000
v -1.500000 1.500000 1.000000
v 1.500000 1.500000 1.000000
v 0.000000 1.500000 1.000000
v 0.000000 2.812500 1.000000
v -1.254169 1.500000 1.000000
v 0.000000 0.245830 1.000000
v -1.254169 2.754169 1.000000
v -1.254169 0.245830 1.000000
v 1.312500 1.500000 1.000000
v 1.254169 2.754169 1.000000
v 1.254169 0.245830 1.000000
v 0.000000 2.754169 1.000000
v -1.312500 2.812500 1.000000
v 0.000000 0.187500 1.000000
v -1.312500 0.187500 1.000000
v -1.312500 1.500000 1.000000
v 1.312500 2.812500 1.000000
v 1.312500 0.187500 1.000000
v 1.254169 1.500000 1.000000
v -1.500000 0.000000 -1.000000
v -1.500000 3.000000 -1.000000
v 1.500000 0.000000 -1.000000
v 1.500000 3.000000 -1.000000
v 0.000000 0.000000 -1.000000
v 0.000000 3.000000 -1.000000
v -1.500000 1.500000 -1.000000
v 1.500000 1.500000 -1.000000
v 0.000000 1.500000 -1.000000
v 0.000000 2.812500 -1.000000
v -1.254169 1.500000 -1.000000
v 0.000000 0.245830 -1.000000
v -1.254169 2.754169 -1.000000
v -1.254169 0.245830 -1.000000
v 1.312500 1.500000 -1.000000
v 1.254169 2.754169 -1.000000
v 1.254169 0.245830 -1.000000
v 0.000000 2.754169 -1.000000
v -1.312500 2.812500 -1.000000
v 0.000000 0.187500 -1.000000
v -1.312500 0.187500 -1.000000
v -1.312500 1.500000 -1.000000
v 1.312500 2.812500 -1.000000
v 1.312500 0.187500 -1.000000
v 1.254169 1.500000 -1.000000
v 1.500000 3.000000 0.800000
v 0.000000 3.000000 0.800000
v -1.500000 3.000000 0.800000
v -1.500000 1.500000 0.800000
v -1.500000 0.000000 0.800000
v 0.000000 0.000000 0.800000
v 1.500000 0.000000 0.800000
v 1.500000 1.500000 0.800000
v 1.500000 3.000000 -0.800000
v 0.000000 3.000000 -0.800000
v -1.500000 3.000000 -0.800000
v -1.500000 1.500000 -0.800000
v -1.500000 0.000000 -0.800000
v 0.000000 0.000000 -0.800000
v 1.500000 0.000000 -0.800000
v 1.500000 1.500000 -0.800000
vt 0.500000 0.500000
vt 0.500000 0.314210
vt 0.685789 0.314210
vt 0.685789 0.500000
vt 0.500000 1.021247
vt 0.500000 0.958753
vt 0.937456 0.958753
vt 0.999950 1.021247
vt 0.500000 1.021247
vt 0.000050 1.021247
vt 0.062543 0.958753
vt 0.500000 0.958753
vt 0.500000 0.958753
vt 0.937456 0.958753
vt 0.999950 1.021247
vt 0.500000 1.021247
vt 0.000050 1.021247
vt 0.062544 0.958753
vt 0.685789 0.685790
vt 0.500000 0.685790
vt 0.937456 0.958753
vt 0.999950 1.021247
vt 0.314210 0.500000
vt 0.314210 0.314210
vt 0.314210 0.685789
vt 0.000050 1.021247
vt 0.062544 0.958753
vt 0.500000 1.021247
vt 0.500000 0.958753
vt 0.937456 0.958753
vt 0.999950 1.021247
vt 0.000050 1.021247
vt 0.062543 0.958753
vt 0.213341 0.024584
vt 0.500000 0.024584
vt 0.500000 0.037916
vt 0.200009 0.037916
vt 0.500000 0.024584
vt 0.786659 0.024584
vt 0.799991 0.037916
vt 0.500000 0.037916
vt 0.213341 0.024584
vt 0.500000 0.024584
vt 0.500000 0.037916
vt 0.200009 0.037916
vt 0.786659 0.024584
vt 0.799991 0.037916
vt 0.786659 0.024584
vt 0.799991 0.037916
vt 0.213341 0.024584
vt 0.200009 0.037916
vt 0.500000 0.024584
vt 0.786659 0.024584
vt 0.799991 0.037916
vt 0.500000 0.037916
vt 0.213341 0.024584
vt 0.200009 0.037916
vt 0.500000 0.500000
vt 0.685789 0.500000
vt 0.685789 0.314210
vt 0.500000 0.314210
vt 0.500000 1.021247
vt 0.999950 1.021247
vt 0.937456 0.958753
vt 0.500000 0.958753
vt 0.500000 1.021247
vt 0.500000 0.958753
vt 0.062543 0.958753
vt 0.000050 1.021247
vt 0.500000 0.958753
vt 0.500000 1.021247
vt 0.999950 1.021247
vt 0.937456 0.958753
vt 0.062544 0.958753
vt 0.000050 1.021247
vt 0.500000 0.685790
vt 0.685789 0.685790
vt 0.999950 1.021247
vt 0.937456 0.958753
vt 0.314210 0.314210
vt 0.314210 0.500000
vt 0.314210 0.685789
vt 0.062544 0.958753
vt 0.000050 1.021247
vt 0.500000 1.021247
vt 0.999950 1.021247
vt 0.937456 0.958753
vt 0.500000 0.958753
vt 0.062543 0.958753
vt 0.000050 1.021247
vt 0.213341 0.024584
vt 0.200009 0.037916
vt 0.500000 0.037916
vt 0.500000 0.024584
vt 0.500000 0.024584
vt 0.500000 0.037916
vt 0.799991 0.037916
vt 0.786659 0.024584
vt 0.213341 0.024584
vt 0.200009 0.037916
vt 0.500000 0.037916
vt 0.500000 0.024584
vt 0.799991 0.037916
vt 0.786659 0.024584
vt 0.799991 0.037916
vt 0.786659 0.024584
vt 0.213341 0.024584
vt 0.200009 0.037916
vt 0.500000 0.024584
vt 0.500000 0.037916
vt 0.799991 0.037916
vt 0.786659 0.024584
vt 0.213341 0.024584
vt 0.200009 0.037916
vt 0.930473 0.917403
vt 0.922421 0.917403
vt 0.922421 0.916329
vt 0.930473 0.916329
vt 0.938525 0.917403
vt 0.938525 0.916329
vt 0.946578 0.916329
vt 0.946578 0.917403
vt 0.954630 0.916329
vt 0.954630 0.917403
vt 0.499999 0.726670
vt 0.999949 0.726670
vt 0.999949 0.793330
vt 0.499999 0.793330
vt 0.000052 0.726671
vt 0.000052 0.793330
vt 0.906316 0.917403
vt 0.906316 0.916329
vt 0.914369 0.916329
vt 0.914369 0.917403
vt 0.914369 0.927066
vt 0.914369 0.925992
vt 0.922421 0.925992
vt 0.922421 0.927066
vt 0.906316 0.927066
vt 0.906316 0.925992
vt 0.999949 0.793329
vt 0.500002 0.793330
vt 0.500002 0.726670
vt 0.999949 0.726670
vt 0.000052 0.793330
vt 0.000052 0.726670
vt 0.946578 0.927066
vt 0.946578 0.925992
vt 0.954630 0.925992
vt 0.954630 0.927066
vt 0.938525 0.927066
vt 0.938525 0.925992
vt 0.930473 0.927066
vt 0.930473 0.925992
vt 0.136752 0.350027
vt 0.486701 0.350027
vt 0.486701 0.723306
vt 0.136752 0.723306
vt 0.836650 0.350027
vt 0.836650 0.723306
vn 0.0000 0.0000 1.0000
vn 0.0000 0.0000 -1.0000
vn 0.0000 1.0000 0.0000
vn -1.0000 0.0000 0.0000
vn 0.0000 -1.0000 0.0000
vn 1.0000 0.0000 0.0000
usemtl Material.548
s off
f 9/1/1 18/2/1 13/3/1 11/4/1
f 5/5/1 20/6/1 21/7/1 1/8/1
f 6/9/1 2/10/1 19/11/1 10/12/1
f 22/13/1 19/14/1 2/15/1 7/16/1
f 22/13/1 7/16/1 1/17/1 21/18/1
f 9/1/1 11/4/1 14/19/1 12/20/1
f 6/9/1 10/12/1 23/21/1 4/22/1
f 18/2/1 9/1/1 25/23/1 16/24/1
f 9/1/1 12/20/1 17/25/1 25/23/1
f 20/6/1 5/5/1 3/26/1 24/27/1
f 8/28/1 15/29/1 24/30/1 3/31/1
f 8/28/1 4/32/1 23/33/1 15/29/1
f 13/34/1 18/35/1 10/36/1 19/37/1
f 12/38/1 14/39/1 21/40/1 20/41/1
f 14/42/1 11/43/1 22/44/1 21/45/1
f 11/43/1 13/46/1 19/47/1 22/44/1
f 18/35/1 16/48/1 23/49/1 10/36/1
f 17/50/1 12/38/1 20/41/1 24/51/1
f 25/52/1 17/53/1 24/54/1 15/55/1
f 16/56/1 25/52/1 15/55/1 23/57/1
f 34/58/2 36/59/2 38/60/2 43/61/2
f 30/62/2 26/63/2 46/64/2 45/65/2
f 31/66/2 35/67/2 44/68/2 27/69/2
f 47/70/2 32/71/2 27/72/2 44/73/2
f 47/70/2 46/74/2 26/75/2 32/71/2
f 34/58/2 37/76/2 39/77/2 36/59/2
f 31/66/2 29/78/2 48/79/2 35/67/2
f 43/61/2 41/80/2 50/81/2 34/58/2
f 34/58/2 50/81/2 42/82/2 37/76/2
f 45/65/2 49/83/2 28/84/2 30/62/2
f 33/85/2 28/86/2 49/87/2 40/88/2
f 33/85/2 40/88/2 48/89/2 29/90/2
f 38/91/2 44/92/2 35/93/2 43/94/2
f 37/95/2 45/96/2 46/97/2 39/98/2
f 39/99/2 46/100/2 47/101/2 36/102/2
f 36/102/2 47/101/2 44/103/2 38/104/2
f 43/94/2 35/93/2 48/105/2 41/106/2
f 42/107/2 49/108/2 45/96/2 37/95/2
f 50/109/2 40/110/2 49/111/2 42/112/2
f 41/113/2 48/114/2 40/110/2 50/109/2
f 60/115/3 59/116/3 29/117/3 31/118/3
f 61/119/3 60/115/3 31/118/3 27/120/3
f 61/119/4 27/120/4 32/121/4 62/122/4
f 62/122/4 32/121/4 26/123/4 63/124/4
f 64/125/5 63/126/5 26/127/5 30/128/5
f 65/129/5 64/125/5 30/128/5 28/130/5
f 65/131/6 28/132/6 33/133/6 66/134/6
f 66/134/6 33/133/6 29/117/6 59/116/6
f 8/135/6 58/136/6 51/137/6 4/138/6
f 3/139/6 57/140/6 58/136/6 8/135/6
f 3/141/5 5/142/5 56/143/5 57/144/5
f 5/142/5 1/145/5 55/146/5 56/143/5
f 7/147/4 54/148/4 55/149/4 1/150/4
f 2/151/4 53/152/4 54/148/4 7/147/4
f 2/151/3 6/153/3 52/154/3 53/152/3
f 6/153/3 4/138/3 51/137/3 52/154/3
f 58/136/6 66/134/6 59/116/6 51/137/6
f 57/140/6 65/131/6 66/134/6 58/136/6
f 57/155/5 56/156/5 64/157/5 65/158/5
f 56/156/5 55/159/5 63/160/5 64/157/5
f 54/148/4 62/122/4 63/124/4 55/149/4
f 53/152/4 61/119/4 62/122/4 54/148/4
f 53/152/3 52/154/3 60/115/3 61/119/3
f 52/154/3 51/137/3 59/116/3 60/115/3
