# Blender v2.82 (sub 7) OBJ File: ''
# www.blender.org
mtllib SciFi_Wall_window.mtl
o SciFi_Wall
v 1.524020 -0.284960 -1.332017
v 1.524020 -0.284959 -3.961657
v 1.557690 -0.155564 -3.961657
v 1.557690 1.619371 -3.961657
v 1.557690 -0.155565 -1.332017
v 1.656940 -0.565669 -3.961657
v 1.656940 -0.999999 -3.961657
v 1.524020 -0.376287 -1.332017
v 1.524020 -0.376286 -3.961657
v 1.557690 1.619370 -1.332017
v 1.656940 -0.565670 1.297623
v 1.557690 1.619370 1.297623
v 1.656940 -0.565670 -1.332017
v 1.656940 -1.000000 -1.332017
v 1.524020 -0.376287 1.297623
v 1.524020 -0.284961 3.927263
v 1.524020 -0.284960 1.297623
v 1.557690 -0.155565 1.297623
v 1.656940 -1.000001 3.927263
v 1.656940 -0.565671 3.927263
v 1.557690 1.619369 3.927264
v 1.557690 -0.155566 3.927263
v 1.656940 -1.000000 1.297623
v 1.524020 -0.376288 3.927263
v 1.557690 0.838657 -1.332017
v 1.557690 0.838657 1.297623
v 1.557690 0.838657 3.927264
v 1.557690 0.838657 -3.961657
v 1.557690 -0.026472 -3.961657
v 1.557690 -0.026472 -1.332017
v 1.557690 -0.026472 1.297623
v 1.557690 -0.026472 3.927263
v 1.557690 -0.026472 -3.555023
v 1.557690 0.838657 -3.555023
v 1.557690 -0.026472 3.560548
v 1.557690 0.838657 3.560548
v 1.557690 1.619371 -3.555023
v 1.557690 -0.155564 -3.555023
v 1.656940 -0.999999 -3.555023
v 1.524020 -0.284959 -3.555023
v 1.524020 -0.376286 -3.555023
v 1.656940 -0.565669 -3.555023
v 1.524020 -0.284961 3.560548
v 1.557690 -0.155566 3.560548
v 1.656940 -0.565671 3.560549
v 1.656940 -1.000001 3.560549
v 1.524020 -0.376288 3.560549
v 1.557690 1.619369 3.560548
v 1.300000 -0.000482 3.433364
v 1.300000 0.119800 3.553645
v 1.300000 0.008371 3.485260
v 1.300000 0.032216 3.520947
v 1.300000 0.067904 3.544792
v 1.300000 0.680201 3.553645
v 1.300000 0.800483 3.433364
v 1.300000 0.732097 3.544792
v 1.300000 0.767785 3.520947
v 1.300000 0.791630 3.485260
v 1.300000 0.119800 -3.547319
v 1.300000 -0.000482 -3.427037
v 1.300000 0.067904 -3.538466
v 1.300000 0.032216 -3.514621
v 1.300000 0.008371 -3.478933
v 1.300000 0.800483 -3.427037
v 1.300000 0.680201 -3.547319
v 1.300000 0.791630 -3.478933
v 1.300000 0.767785 -3.514621
v 1.300000 0.732097 -3.538466
v 1.600000 0.113782 3.614758
v 1.561595 0.110000 3.653163
v 1.588751 0.111108 3.641915
v 1.561595 -0.100000 3.443163
v 1.600000 -0.061595 3.439381
v 1.588751 -0.088751 3.442055
v 1.600000 0.044622 3.601001
v 1.561595 0.029637 3.637178
v 1.588751 0.034026 3.626582
v 1.600000 -0.010804 3.563967
v 1.561595 -0.038492 3.591655
v 1.588751 -0.030382 3.583546
v 1.600000 -0.047838 3.508542
v 1.561595 -0.084014 3.523527
v 1.588751 -0.073418 3.519138
v 1.600000 0.861596 3.439382
v 1.561595 0.900001 3.443163
v 1.588751 0.888752 3.442056
v 1.561595 0.690000 3.653163
v 1.600000 0.686219 3.614758
v 1.588751 0.688893 3.641915
v 1.561595 0.884015 3.523527
v 1.600000 0.847839 3.508543
v 1.588751 0.873419 3.519138
v 1.561595 0.838493 3.591656
v 1.600000 0.810805 3.563967
v 1.588751 0.830383 3.583546
v 1.561595 0.770364 3.637178
v 1.600000 0.755379 3.601001
v 1.588751 0.765975 3.626582
v 1.600000 -0.061595 -3.433055
v 1.561595 -0.100000 -3.436837
v 1.588751 -0.088751 -3.435730
v 1.561595 0.110000 -3.646837
v 1.600000 0.113782 -3.608432
v 1.588751 0.111108 -3.635589
v 1.561595 -0.084014 -3.517200
v 1.600000 -0.047838 -3.502216
v 1.588751 -0.073418 -3.512812
v 1.561595 -0.038492 -3.585329
v 1.600000 -0.010804 -3.557641
v 1.588751 -0.030382 -3.577219
v 1.561595 0.029637 -3.630852
v 1.600000 0.044622 -3.594675
v 1.588751 0.034026 -3.620256
v 1.600000 0.686219 -3.608432
v 1.561595 0.690000 -3.646837
v 1.588751 0.688893 -3.635589
v 1.561595 0.900000 -3.436837
v 1.600000 0.861595 -3.433055
v 1.588751 0.888752 -3.435729
v 1.600000 0.755379 -3.594675
v 1.561595 0.770364 -3.630852
v 1.588751 0.765975 -3.620256
v 1.600000 0.810805 -3.557641
v 1.561595 0.838493 -3.585329
v 1.588751 0.830383 -3.577219
v 1.600000 0.847839 -3.502216
v 1.561595 0.884015 -3.517200
v 1.588751 0.873419 -3.512811
v 1.561595 0.119800 3.553645
v 1.600000 0.116033 3.591895
v 1.588751 0.118697 3.564849
v 1.600000 -0.038732 3.437130
v 1.561595 -0.000482 3.433364
v 1.588751 -0.011685 3.434467
v 1.561595 0.067904 3.544792
v 1.600000 0.052861 3.581109
v 1.588751 0.063498 3.555429
v 1.561595 0.032216 3.520947
v 1.600000 0.004424 3.548739
v 1.588751 0.024076 3.529087
v 1.561595 0.008371 3.485260
v 1.600000 -0.027946 3.500303
v 1.588751 -0.002266 3.489666
v 1.561595 0.800483 3.433364
v 1.600000 0.838733 3.437130
v 1.588751 0.811686 3.434467
v 1.600000 0.683967 3.591895
v 1.561595 0.680201 3.553645
v 1.588751 0.681304 3.564849
v 1.600000 0.827947 3.500303
v 1.561595 0.791630 3.485260
v 1.588751 0.802267 3.489666
v 1.600000 0.795577 3.548739
v 1.561595 0.767785 3.520947
v 1.588751 0.775925 3.529088
v 1.600000 0.747140 3.581110
v 1.561595 0.732097 3.544792
v 1.588751 0.736503 3.555429
v 1.561595 -0.000482 -3.427037
v 1.600000 -0.038732 -3.430804
v 1.588751 -0.011685 -3.428141
v 1.600000 0.116033 -3.585569
v 1.561595 0.119800 -3.547319
v 1.588751 0.118697 -3.558522
v 1.600000 -0.027946 -3.493976
v 1.561595 0.008371 -3.478933
v 1.588751 -0.002266 -3.483339
v 1.600000 0.004424 -3.542413
v 1.561595 0.032216 -3.514621
v 1.588751 0.024076 -3.522761
v 1.600000 0.052861 -3.574783
v 1.561595 0.067904 -3.538466
v 1.588751 0.063498 -3.549103
v 1.561595 0.680201 -3.547319
v 1.600000 0.683967 -3.585569
v 1.588751 0.681304 -3.558523
v 1.600000 0.838733 -3.430804
v 1.561595 0.800483 -3.427037
v 1.588751 0.811686 -3.428141
v 1.561595 0.732097 -3.538466
v 1.600000 0.747140 -3.574783
v 1.588751 0.736503 -3.549103
v 1.561595 0.767785 -3.514621
v 1.600000 0.795577 -3.542413
v 1.588751 0.775925 -3.522761
v 1.561595 0.791630 -3.478933
v 1.600000 0.827947 -3.493976
v 1.588751 0.802267 -3.483339
v 1.547894 0.838493 -3.585329
v 1.547894 0.884015 -3.517200
v 1.547894 0.770364 -3.630852
v 1.547894 -0.038492 -3.585329
v 1.547894 0.690000 -3.646837
v 1.547894 0.110000 -3.646837
v 1.547894 0.029637 -3.630852
v 1.547894 -0.084014 -3.517200
v 1.547894 0.838493 3.591656
v 1.547894 0.770364 3.637178
v 1.547894 0.900000 -3.436837
v 1.547894 0.884015 3.523527
v 1.547894 0.900001 3.443163
v 1.547894 -0.038492 3.591655
v 1.547894 -0.084014 3.523527
v 1.547894 -0.100000 3.443163
v 1.547894 -0.100000 -3.436837
v 1.547894 0.690000 3.653163
v 1.547894 0.110000 3.653163
v 1.547894 0.029637 3.637178
vt 0.989982 0.284036
vt 0.989982 0.334184
vt 0.836912 0.334184
vt 0.836912 0.284036
vt 0.989982 0.382602
vt 0.836912 0.382602
vt 0.989982 0.163002
vt 0.836912 0.163002
vt 0.836912 0.000100
vt 0.989982 0.000100
vt 0.836912 0.249782
vt 0.989982 0.249782
vt 0.989982 0.284036
vt 0.989982 0.334184
vt 0.000099 0.334184
vt 0.000099 0.284035
vt 0.989982 0.382602
vt 0.000099 0.382602
vt 0.989982 0.163002
vt 0.000099 0.163001
vt 0.000099 0.000099
vt 0.989982 0.000100
vt 0.000099 0.249782
vt 0.989982 0.249782
vt 0.989982 0.284036
vt 0.989982 0.334184
vt 0.138143 0.334184
vt 0.138143 0.284035
vt 0.989982 0.382602
vt 0.138143 0.382602
vt 0.989982 0.163002
vt 0.138143 0.163002
vt 0.138143 0.000099
vt 0.989982 0.000100
vt 0.138143 0.249782
vt 0.989982 0.249782
vt 0.000099 0.707082
vt 0.138143 0.707082
vt 0.138143 0.999901
vt 0.000099 0.999901
vt 0.000099 0.707082
vt 0.836912 0.707082
vt 0.836912 0.999900
vt 0.000099 0.999901
vt 0.000099 0.707082
vt 0.989982 0.707082
vt 0.989982 0.999900
vt 0.000099 0.999901
vt 0.000099 0.382602
vt 0.989982 0.707082
vt 0.989982 0.999900
vt 0.000099 0.163001
vt 0.000099 0.000099
vt 0.000099 0.284035
vt 0.000099 0.249782
vt 0.000099 0.334184
vt 0.000099 0.382602
vt 0.000099 0.163001
vt 0.000099 0.000099
vt 0.000099 0.284035
vt 0.000099 0.249782
vt 0.000099 0.334184
vt 0.989982 0.707082
vt 0.989982 0.999900
vt 0.537772 0.874715
vt 0.518164 0.874715
vt 0.518164 0.873686
vt 0.537772 0.873686
vt 0.778735 0.874715
vt 0.544807 0.874715
vt 0.544807 0.873686
vt 0.778735 0.873686
vt 0.233273 0.874715
vt 0.213265 0.874715
vt 0.213265 0.873686
vt 0.233273 0.873686
vt 0.235290 0.874715
vt 0.235290 0.873686
vt 0.238765 0.874715
vt 0.236996 0.874715
vt 0.236996 0.873686
vt 0.238765 0.873686
vt 0.233273 0.878124
vt 0.213265 0.878124
vt 0.213265 0.877454
vt 0.233273 0.877454
vt 0.207753 0.874715
vt 0.205952 0.874715
vt 0.205952 0.873686
vt 0.207753 0.873686
vt 0.516183 0.854104
vt 0.518164 0.854104
vt 0.518164 0.870295
vt 0.516183 0.870295
vt 0.209435 0.874715
vt 0.209435 0.873686
vt 0.205952 0.878124
vt 0.205952 0.877454
vt 0.207753 0.877454
vt 0.207753 0.878124
vt 0.510476 0.874715
vt 0.240983 0.874715
vt 0.240983 0.873686
vt 0.510476 0.873686
vt 0.542886 0.874715
vt 0.542886 0.873686
vt 0.514401 0.874715
vt 0.512644 0.874715
vt 0.512644 0.873686
vt 0.514401 0.873686
vt 0.541306 0.874715
vt 0.541306 0.873686
vt 0.539715 0.874715
vt 0.539715 0.873686
vt 0.510476 0.878124
vt 0.510476 0.877454
vt 0.512644 0.877454
vt 0.512644 0.878124
vt 0.240983 0.854104
vt 0.510476 0.854104
vt 0.510476 0.870295
vt 0.240983 0.870295
vt 0.539715 0.870295
vt 0.537772 0.870295
vt 0.537772 0.854104
vt 0.539715 0.854104
vt 0.238765 0.870295
vt 0.236996 0.870295
vt 0.236996 0.854104
vt 0.238765 0.854104
vt 0.235290 0.870295
vt 0.233273 0.870295
vt 0.233273 0.854104
vt 0.235290 0.854104
vt 0.211187 0.854104
vt 0.213265 0.854104
vt 0.213265 0.870295
vt 0.211187 0.870295
vt 0.209435 0.854104
vt 0.209435 0.870295
vt 0.207753 0.854104
vt 0.207753 0.870295
vt 0.205952 0.854104
vt 0.205952 0.870295
vt 0.514401 0.854104
vt 0.514401 0.870295
vt 0.544807 0.870295
vt 0.542886 0.870295
vt 0.542886 0.854104
vt 0.544807 0.854104
vt 0.512644 0.854104
vt 0.512644 0.870295
vt 0.778735 0.870295
vt 0.778735 0.854104
vt 0.541306 0.870295
vt 0.541306 0.854104
vt 0.240983 0.877454
vt 0.240983 0.878124
vt 0.238765 0.878124
vt 0.238765 0.877454
vt 0.211187 0.874715
vt 0.211187 0.873686
vt 0.235290 0.877454
vt 0.235290 0.878124
vt 0.778735 0.877454
vt 0.778735 0.878124
vt 0.544807 0.878124
vt 0.544807 0.877454
vt 0.541306 0.877454
vt 0.541306 0.878124
vt 0.539715 0.878124
vt 0.539715 0.877454
vt 0.209435 0.877454
vt 0.209435 0.878124
vt 0.211187 0.877454
vt 0.211187 0.878124
vt 0.516183 0.874715
vt 0.516183 0.873686
vt 0.514401 0.877454
vt 0.514401 0.878124
vt 0.516183 0.877454
vt 0.516183 0.878124
vt 0.518164 0.877454
vt 0.518164 0.878124
vt 0.537772 0.877454
vt 0.537772 0.878124
vt 0.240983 0.876032
vt 0.238765 0.876032
vt 0.236996 0.876032
vt 0.236996 0.877454
vt 0.235290 0.876032
vt 0.233273 0.876032
vt 0.207753 0.876032
vt 0.205952 0.876032
vt 0.209435 0.876032
vt 0.211187 0.876032
vt 0.213265 0.876032
vt 0.512644 0.876032
vt 0.510476 0.876032
vt 0.514401 0.876032
vt 0.516183 0.876032
vt 0.518164 0.876032
vt 0.544807 0.876032
vt 0.542886 0.876032
vt 0.542886 0.877454
vt 0.541306 0.876032
vt 0.539715 0.876032
vt 0.537772 0.876032
vt 0.778735 0.876032
vt 0.240983 0.872153
vt 0.238765 0.872153
vt 0.236996 0.872153
vt 0.235290 0.872153
vt 0.233273 0.872153
vt 0.207753 0.872153
vt 0.205952 0.872153
vt 0.209435 0.872153
vt 0.211187 0.872153
vt 0.213265 0.872153
vt 0.512644 0.872153
vt 0.510476 0.872153
vt 0.514401 0.872153
vt 0.516183 0.872153
vt 0.518164 0.872153
vt 0.544807 0.872153
vt 0.542886 0.872153
vt 0.541306 0.872153
vt 0.539715 0.872153
vt 0.537772 0.872153
vt 0.778735 0.872153
vt 0.542886 0.878124
vt 0.236996 0.878124
vn 0.9993 -0.0238 0.0272
vn 0.9886 -0.0966 -0.1151
vn 0.9702 -0.2425 -0.0000
vn 0.9928 -0.0734 -0.0943
vn 0.9936 0.0281 -0.1092
vn 0.9956 0.0500 0.0796
vn 0.8971 0.2834 -0.3389
vn 0.9996 -0.0298 0.0000
vn 1.0000 -0.0000 0.0000
vn 0.8899 0.4039 -0.2120
vn 0.8590 0.5087 0.0579
vn 0.9981 -0.0326 0.0531
vn 0.9851 -0.1261 0.1173
vn 0.9928 -0.0735 -0.0943
vn 0.9964 0.0723 0.0440
vn 0.9003 0.2844 0.3295
vn 0.8897 0.4046 -0.2116
vn 0.8614 0.4940 0.1178
vn 0.9928 -0.0736 -0.0944
vn 0.9996 0.0278 -0.0048
vn 0.8895 0.4053 -0.2112
vn 0.9993 -0.0085 -0.0367
vn 0.9984 -0.0357 -0.0438
vn 0.9956 -0.0800 0.0494
vn 0.8982 0.2800 0.3389
vn 0.9731 -0.2286 -0.0270
vn 0.9952 0.0775 -0.0595
vn 0.9825 -0.1444 0.1175
vn 0.9786 0.0202 0.2049
vn 0.9786 -0.0202 0.2049
vn 0.9828 0.0157 -0.1842
vn 0.9828 -0.0157 -0.1842
vn 0.9786 0.2049 -0.0202
vn 0.9786 0.2049 0.0202
vn 0.9828 -0.1842 -0.0157
vn 0.9828 -0.1842 0.0157
vn 0.9786 -0.0202 -0.2049
vn 0.9786 0.0202 -0.2049
vn 0.9828 -0.0157 0.1842
vn 0.9828 0.0157 0.1842
vn 0.9767 -0.0821 -0.1983
vn 0.9861 0.0617 0.1544
vn 0.9767 -0.1983 -0.0821
vn 0.9767 -0.1518 -0.1518
vn 0.9858 0.1187 0.1187
vn 0.9861 0.1544 0.0617
vn 0.0000 -0.0980 -0.9952
vn 0.0000 0.0980 -0.9952
vn 0.1936 0.0962 -0.9764
vn 0.1936 -0.0962 -0.9764
vn 0.9767 0.1983 -0.0821
vn 0.9861 -0.1544 0.0617
vn 0.0000 0.3700 -0.9290
vn 0.0000 0.0844 -0.9964
vn 0.1972 0.0826 -0.9769
vn 0.2045 0.3618 -0.9095
vn 0.9767 0.1518 -0.1518
vn 0.9858 -0.1187 0.1187
vn 0.0000 0.9952 -0.0980
vn 0.1936 0.9764 -0.0962
vn 0.1938 0.9064 -0.3754
vn 0.0000 0.9239 -0.3827
vn 0.9786 -0.2049 0.0202
vn 0.9786 -0.2049 -0.0202
vn 0.9828 0.1842 0.0157
vn 0.9828 0.1842 -0.0157
vn 0.9767 0.1983 0.0821
vn 0.9861 -0.1544 -0.0617
vn 0.9767 -0.1518 0.1518
vn 0.9767 -0.1983 0.0821
vn 0.9861 0.1544 -0.0617
vn 0.9858 0.1187 -0.1187
vn 0.9767 0.1518 0.1518
vn 0.9858 -0.1187 -0.1187
vn 0.9767 0.0821 0.1983
vn 0.9861 -0.0617 -0.1544
vn 0.0000 -0.9952 0.0980
vn 0.1936 -0.9764 0.0962
vn 0.1938 -0.9064 0.3754
vn 0.0000 -0.9239 0.3827
vn 0.0000 0.9964 0.0844
vn 0.0000 0.9964 -0.0844
vn 0.1972 0.9769 -0.0826
vn 0.1972 0.9769 0.0826
vn 0.2045 -0.3618 -0.9095
vn 0.1972 -0.0826 -0.9769
vn 0.0000 -0.0844 -0.9964
vn 0.0000 -0.3700 -0.9290
vn 0.2045 0.9095 0.3618
vn 0.2042 0.6922 0.6922
vn 0.0000 0.7071 0.7071
vn 0.0000 0.9290 0.3700
vn 0.2045 0.3618 0.9095
vn 0.1972 0.0826 0.9769
vn 0.0000 0.0844 0.9964
vn 0.0000 0.3700 0.9290
vn 0.0000 -0.3700 0.9290
vn 0.0000 -0.0844 0.9964
vn 0.1972 -0.0826 0.9769
vn 0.2045 -0.3618 0.9095
vn 0.0000 -0.7071 0.7071
vn 0.2042 -0.6922 0.6922
vn 0.0000 -0.9290 0.3700
vn 0.2045 -0.9095 0.3618
vn 0.0000 -0.9964 0.0844
vn 0.1972 -0.9769 0.0826
vn 0.0000 0.7071 -0.7071
vn 0.2042 0.6922 -0.6922
vn 0.1972 -0.9769 -0.0826
vn 0.2045 -0.9095 -0.3618
vn 0.0000 -0.9290 -0.3700
vn 0.0000 -0.9964 -0.0844
vn 0.0000 0.9290 -0.3700
vn 0.2045 0.9095 -0.3618
vn 0.2041 -0.6922 -0.6922
vn 0.0000 -0.7071 -0.7071
vn 0.1936 -0.9764 -0.0962
vn 0.0000 -0.9952 -0.0980
vn 0.0000 -0.9239 -0.3827
vn 0.1938 -0.9064 -0.3754
vn 0.9767 0.0821 -0.1983
vn 0.9861 -0.0617 0.1544
vn 0.1938 -0.3754 -0.9064
vn 0.0000 -0.3827 -0.9239
vn 0.0000 0.9952 0.0980
vn 0.1936 0.9764 0.0962
vn 0.1938 0.6937 0.6937
vn 0.0000 0.3827 0.9239
vn 0.1938 0.3754 0.9064
vn 0.1938 0.6937 -0.6937
vn 0.1938 0.3754 -0.9064
vn 0.0000 0.3827 -0.9239
vn 0.9767 -0.0821 0.1983
vn 0.9861 0.0617 -0.1544
vn 0.1938 -0.6937 0.6937
vn 0.1938 -0.3754 0.9064
vn 0.0000 -0.3827 0.9239
vn 0.1936 -0.0962 0.9764
vn 0.0000 -0.0980 0.9952
vn 0.1936 0.0962 0.9764
vn 0.0000 0.0980 0.9952
vn 0.6966 -0.7140 -0.0703
vn 0.6889 -0.6697 -0.2774
vn 0.6889 -0.5126 -0.5126
vn 0.1938 -0.6937 -0.6937
vn 0.6889 -0.2774 -0.6697
vn 0.6966 -0.0703 -0.7140
vn 0.6889 0.6697 -0.2774
vn 0.6966 0.7140 -0.0703
vn 0.6889 0.5126 -0.5126
vn 0.6889 0.2774 -0.6697
vn 0.6966 0.0703 -0.7140
vn 0.6889 -0.6697 0.2774
vn 0.6966 -0.7140 0.0703
vn 0.6889 -0.5126 0.5126
vn 0.6889 -0.2774 0.6697
vn 0.6966 -0.0703 0.7140
vn 0.6966 0.7140 0.0703
vn 0.6889 0.6697 0.2774
vn 0.1938 0.9064 0.3754
vn 0.6889 0.5126 0.5126
vn 0.6889 0.2774 0.6697
vn 0.6966 0.0703 0.7140
vn 0.7177 0.6939 0.0588
vn 0.7392 0.6257 0.2491
vn 0.7375 0.4776 0.4776
vn 0.7392 0.2491 0.6257
vn 0.7177 0.0588 0.6939
vn 0.7392 -0.6257 0.2491
vn 0.7177 -0.6939 0.0588
vn 0.7375 -0.4776 0.4776
vn 0.7392 -0.2491 0.6257
vn 0.7177 -0.0588 0.6939
vn 0.7392 0.6257 -0.2491
vn 0.7177 0.6939 -0.0588
vn 0.7375 0.4776 -0.4776
vn 0.7392 0.2491 -0.6257
vn 0.7177 0.0588 -0.6939
vn 0.7177 -0.6939 -0.0588
vn 0.7392 -0.6257 -0.2491
vn 0.7375 -0.4776 -0.4776
vn 0.7392 -0.2491 -0.6257
vn 0.7177 -0.0588 -0.6939
vn 0.0000 0.9239 0.3827
usemtl Material.019
s 1
f 2/1/1 3/2/2 38/3/3 40/4/4
f 3/2/2 29/5/5 33/6/6 38/3/3
f 6/7/7 42/8/8 39/9/9 7/10/9
f 2/1/1 40/4/4 41/11/10 9/12/11
f 9/12/11 41/11/10 42/8/8 6/7/7
f 1/13/12 5/14/13 18/15/3 17/16/14
f 5/14/13 30/17/15 31/18/15 18/15/3
f 13/19/16 11/20/8 23/21/9 14/22/9
f 1/13/12 17/16/14 15/23/17 8/24/18
f 8/24/18 15/23/17 11/20/8 13/19/16
f 17/25/14 18/26/3 44/27/3 43/28/19
f 18/26/3 31/29/15 35/30/20 44/27/3
f 11/31/8 45/32/8 46/33/9 23/34/9
f 17/25/14 43/28/19 47/35/21 15/36/17
f 15/36/17 47/35/21 45/32/8 11/31/8
f 27/37/9 36/38/22 48/39/9 21/40/9
f 25/41/23 34/42/24 37/43/9 10/44/9
f 26/45/23 25/46/23 10/47/9 12/48/9
f 32/49/9 35/30/20 36/38/22 27/37/9
f 34/42/24 33/6/6 29/5/5 28/50/5
f 37/43/9 34/42/24 28/50/5 4/51/9
f 39/9/9 42/8/8 13/52/16 14/53/9
f 41/11/10 40/4/4 1/54/12 8/55/18
f 40/4/4 38/3/3 5/56/13 1/54/12
f 42/8/8 41/11/10 8/55/18 13/52/16
f 38/3/3 33/6/6 30/57/15 5/56/13
f 46/33/9 45/32/8 20/58/25 19/59/9
f 47/35/21 43/28/19 16/60/26 24/61/27
f 43/28/19 44/27/3 22/62/28 16/60/26
f 45/32/8 47/35/21 24/61/27 20/58/25
f 44/27/3 35/30/20 32/49/9 22/62/28
f 48/39/9 36/38/22 26/63/23 12/64/9
f 88/65/29 69/66/30 130/67/31 147/68/32
f 118/69/33 84/70/34 145/71/35 177/72/36
f 103/73/37 114/74/38 175/75/39 162/76/40
f 112/77/41 103/73/37 162/76/40 171/78/42
f 106/79/43 109/80/44 168/81/45 165/82/46
f 109/80/44 112/77/41 171/78/42 168/81/45
f 194/83/47 193/84/48 115/85/49 102/86/50
f 126/87/51 118/88/33 177/89/36 187/90/52
f 53/91/53 50/92/54 129/93/55 135/94/56
f 123/95/57 126/87/51 187/90/52 184/96/58
f 199/97/59 117/98/60 127/99/61 190/100/62
f 73/101/63 99/102/64 160/103/65 132/104/66
f 84/70/34 91/105/67 150/106/68 145/71/35
f 78/107/69 81/108/70 142/109/71 139/110/72
f 91/105/67 94/111/73 153/112/74 150/106/68
f 94/111/73 97/113/75 156/114/76 153/112/74
f 204/115/77 72/116/78 82/117/79 203/118/80
f 60/119/81 49/120/82 133/121/83 159/122/84
f 157/123/85 148/124/86 54/125/87 56/126/88
f 166/127/89 169/128/90 62/129/91 63/130/92
f 172/131/93 163/132/94 59/133/95 61/134/96
f 169/128/90 172/131/93 61/134/96 62/129/91
f 68/135/97 65/136/98 174/137/99 180/138/100
f 59/133/95 163/132/94 174/137/99 65/136/98
f 67/139/101 68/135/97 180/138/100 183/140/102
f 66/141/103 67/139/101 183/140/102 186/142/104
f 64/143/105 66/141/103 186/142/104 178/144/106
f 52/145/107 53/91/53 135/94/56 138/146/108
f 144/147/109 151/148/110 58/149/111 55/150/112
f 51/151/113 52/145/107 138/146/108 141/152/114
f 129/93/55 50/92/54 54/125/87 148/124/86
f 178/153/106 144/147/109 55/150/112 64/154/105
f 154/155/115 157/123/85 56/126/88 57/156/116
f 159/122/84 166/127/89 63/130/92 60/119/81
f 151/148/110 154/155/115 57/156/116 58/149/111
f 49/120/82 51/151/113 141/152/114 133/121/83
f 100/157/117 205/158/118 196/159/119 105/160/120
f 114/74/38 120/161/121 181/162/122 175/75/39
f 111/163/123 195/164/124 194/83/47 102/86/50
f 117/165/60 199/166/59 201/167/125 85/168/126
f 120/161/121 123/95/57 184/96/58 181/162/122
f 93/169/127 197/170/91 198/171/128 96/172/129
f 190/100/62 127/99/61 124/173/130 189/174/107
f 189/174/107 124/173/130 121/175/131 191/176/132
f 191/176/132 121/175/131 115/85/49 193/84/48
f 75/177/133 78/107/69 139/110/72 136/178/134
f 203/118/80 82/117/79 79/179/135 202/180/101
f 202/180/101 79/179/135 76/181/136 208/182/137
f 208/182/137 76/181/136 70/183/138 207/184/139
f 99/102/64 106/79/43 165/82/46 160/103/65
f 81/108/70 73/101/63 132/104/66 142/109/71
f 70/183/138 87/185/140 206/186/141 207/184/139
f 205/158/118 100/157/117 72/116/78 204/115/77
f 97/113/75 88/65/29 147/68/32 156/114/76
f 106/79/43 99/102/64 101/187/142 107/188/143
f 107/188/143 101/187/142 100/157/117 105/160/120
f 109/80/44 106/79/43 107/188/143 110/189/144
f 110/189/144 107/188/143 105/160/120 108/190/145
f 112/77/41 109/80/44 110/189/144 113/191/146
f 113/191/146 110/189/144 108/190/145 111/163/123
f 103/73/37 112/77/41 113/191/146 104/192/147
f 104/192/147 113/191/146 111/163/123 102/86/50
f 118/88/33 126/87/51 128/193/148 119/194/149
f 119/194/149 128/193/148 127/99/61 117/98/60
f 126/87/51 123/95/57 125/195/150 128/193/148
f 128/193/148 125/195/150 124/173/130 127/99/61
f 123/95/57 120/161/121 122/196/151 125/195/150
f 125/195/150 122/196/151 121/175/131 124/173/130
f 120/161/121 114/74/38 116/197/152 122/196/151
f 122/196/151 116/197/152 115/85/49 121/175/131
f 73/101/63 81/108/70 83/198/153 74/199/154
f 74/199/154 83/198/153 82/117/79 72/116/78
f 81/108/70 78/107/69 80/200/155 83/198/153
f 83/198/153 80/200/155 79/179/135 82/117/79
f 78/107/69 75/177/133 77/201/156 80/200/155
f 80/200/155 77/201/156 76/181/136 79/179/135
f 75/177/133 69/66/30 71/202/157 77/201/156
f 77/201/156 71/202/157 70/183/138 76/181/136
f 91/105/67 84/70/34 86/203/158 92/204/159
f 92/204/159 86/203/158 85/168/126 90/205/160
f 94/111/73 91/105/67 92/204/159 95/206/161
f 95/206/161 92/204/159 90/205/160 93/169/127
f 97/113/75 94/111/73 95/206/161 98/207/162
f 98/207/162 95/206/161 93/169/127 96/172/129
f 88/65/29 97/113/75 98/207/162 89/208/163
f 89/208/163 98/207/162 96/172/129 87/185/140
f 99/102/64 73/101/63 74/199/154 101/187/142
f 101/187/142 74/199/154 72/116/78 100/157/117
f 69/66/30 88/65/29 89/208/163 71/202/157
f 71/202/157 89/208/163 87/185/140 70/183/138
f 84/70/34 118/69/33 119/209/149 86/203/158
f 86/203/158 119/209/149 117/165/60 85/168/126
f 114/74/38 103/73/37 104/192/147 116/197/152
f 116/197/152 104/192/147 102/86/50 115/85/49
f 166/127/89 159/122/84 161/210/164 167/211/165
f 167/211/165 161/210/164 160/103/65 165/82/46
f 169/128/90 166/127/89 167/211/165 170/212/166
f 170/212/166 167/211/165 165/82/46 168/81/45
f 172/131/93 169/128/90 170/212/166 173/213/167
f 173/213/167 170/212/166 168/81/45 171/78/42
f 163/132/94 172/131/93 173/213/167 164/214/168
f 164/214/168 173/213/167 171/78/42 162/76/40
f 178/144/106 186/142/104 188/215/169 179/216/170
f 179/216/170 188/215/169 187/90/52 177/89/36
f 186/142/104 183/140/102 185/217/171 188/215/169
f 188/215/169 185/217/171 184/96/58 187/90/52
f 183/140/102 180/138/100 182/218/172 185/217/171
f 185/217/171 182/218/172 181/162/122 184/96/58
f 180/138/100 174/137/99 176/219/173 182/218/172
f 182/218/172 176/219/173 175/75/39 181/162/122
f 133/121/83 141/152/114 143/220/174 134/221/175
f 134/221/175 143/220/174 142/109/71 132/104/66
f 141/152/114 138/146/108 140/222/176 143/220/174
f 143/220/174 140/222/176 139/110/72 142/109/71
f 138/146/108 135/94/56 137/223/177 140/222/176
f 140/222/176 137/223/177 136/178/134 139/110/72
f 135/94/56 129/93/55 131/224/178 137/223/177
f 137/223/177 131/224/178 130/67/31 136/178/134
f 151/148/110 144/147/109 146/225/179 152/226/180
f 152/226/180 146/225/179 145/71/35 150/106/68
f 154/155/115 151/148/110 152/226/180 155/227/181
f 155/227/181 152/226/180 150/106/68 153/112/74
f 157/123/85 154/155/115 155/227/181 158/228/182
f 158/228/182 155/227/181 153/112/74 156/114/76
f 148/124/86 157/123/85 158/228/182 149/229/183
f 149/229/183 158/228/182 156/114/76 147/68/32
f 159/122/84 133/121/83 134/221/175 161/210/164
f 161/210/164 134/221/175 132/104/66 160/103/65
f 129/93/55 148/124/86 149/229/183 131/224/178
f 131/224/178 149/229/183 147/68/32 130/67/31
f 144/147/109 178/153/106 179/230/170 146/225/179
f 146/225/179 179/230/170 177/72/36 145/71/35
f 174/137/99 163/132/94 164/214/168 176/219/173
f 176/219/173 164/214/168 162/76/40 175/75/39
f 69/66/30 75/177/133 136/178/134 130/67/31
f 85/168/126 201/167/125 200/231/184 90/205/160
f 105/160/120 196/159/119 192/232/116 108/190/145
f 96/172/129 198/171/128 206/186/141 87/185/140
f 90/205/160 200/231/184 197/170/91 93/169/127
f 108/190/145 192/232/116 195/164/124 111/163/123
