# Blender v2.82 (sub 7) OBJ File: 'KMCESCISTUFF2.blend'
# www.blender.org
mtllib trythis.mtl
o SciFi_Wall.004_SciFi_Wall.005
v 1.579550 -1.000000 6.574101
v 1.579550 1.619370 6.574101
v 1.579550 -1.000000 3.944461
v 1.579550 1.619370 3.944461
v 1.579550 -1.000000 1.314821
v 1.579550 1.619370 1.314821
v 1.579550 -1.000000 -1.314820
v 1.579550 1.619370 -3.944459
v 1.579550 1.619370 -1.314820
v 1.579550 1.619370 -6.574100
v 1.579550 -1.000000 -3.944461
v 1.579550 -1.000000 -6.574102
vt 0.993748 0.000100
vt 0.993748 0.995995
vt 0.000100 0.995996
vt 0.000100 0.000100
vt 0.993748 0.000100
vt 0.993748 0.995995
vt 0.000100 0.995996
vt 0.000100 0.000100
vt 0.993748 0.000100
vt 0.993748 0.995995
vt 0.000100 0.995996
vt 0.000100 0.000100
vt 0.993748 0.000100
vt 0.993748 0.995995
vt 0.000100 0.995996
vt 0.000100 0.000100
vt 0.993748 0.000100
vt 0.993748 0.995995
vt 0.000100 0.995996
vt 0.000100 0.000100
vn 1.0000 0.0000 0.0000
usemtl Wall.003
s off
f 3/1/1 4/2/1 2/3/1 1/4/1
f 5/5/1 6/6/1 4/7/1 3/8/1
f 7/9/1 9/10/1 6/11/1 5/12/1
f 11/13/1 8/14/1 9/15/1 7/16/1
f 12/17/1 10/18/1 8/19/1 11/20/1
