# File produced by Open Asset Import Library (http://www.assimp.sf.net)
# (assimp v3.1.206520482)

mtllib SciFi_Health.mtl

# 115 vertex positions
v -0.1 0.95 -0.1
v -0.1 0.95 0.01
v -0.1 1.3 0.01
v -0.1 1.3 -0.1
v 0.15 0.95 -0.1
v 0.15 1.3 -0.1
v 0.15 0.95 0.01
v 0.15 1.3 0.01
v 0.14 1.29 -1.86265e-09
v 0.14 1.29 0.01
v -0.09 1.29 0.01
v -0.09 1.29 -1.86265e-09
v -0.09 0.96 0.01
v 0.14 0.96 0.01
v 0.07 1.17 0.01
v 0.07 1.17 -1.86265e-09
v 0.13 1.17 -1.86265e-09
v 0.13 1.17 0.01
v 0.14 0.96 -1.86265e-09
v -0.09 0.96 -1.86265e-09
v 0.07 1.23 -1.86265e-09
v 0.13 1.23 -1.86265e-09
v 0.13 1.23 0.01
v 0.07 1.23 0.01
v 0.042426 1.02 0.042426
v 0.035355 1.02 0.035355
v 0 1.02 0.05
v 0 1.02 0.06
v -0.042426 1.02 0.042426
v -0.035355 1.02 0.035355
v -0.05 1.02 -1.86265e-09
v -0.06 1.02 -1.86265e-09
v 0.042426 1 0.042426
v 0.035355 1 0.035355
v 0.05 1 -1.86265e-09
v 0.06 1 -1.86265e-09
v 0 1 0.06
v 0 1 0.05
v -0.042426 1 0.042426
v -0.035355 1 0.035355
v -0.06 1 -1.86265e-09
v -0.05 1 -1.86265e-09
v 0.042426 1.23 0.042426
v 0.035355 1.23 0.035355
v 0.05 1.23 -1.86265e-09
v 0.06 1.23 -1.86265e-09
v -0.035355 1.23 0.035355
v -0.05 1.23 -1.86265e-09
v 0 1.23 0.05
v 0.05 1.02 -1.86265e-09
v 0 1.25 0.05
v 0.035355 1.25 0.035355
v 0 1.25 -1.86265e-09
v -0.05 1.25 -1.86265e-09
v -0.035355 1.25 0.035355
v 0.05 1.25 -1.86265e-09
v 0 1 -1.86265e-09
v 0.06 1.25 -1.86265e-09
v 0.042426 1.25 0.042426
v -0.042426 1.23 0.042426
v 0 1.23 0.06
v 0 1.25 0.06
v -0.042426 1.25 0.042426
v -0.06 1.23 -1.86265e-09
v -0.06 1.25 -1.86265e-09
v 0.06 1.02 -1.86265e-09
v 0.121213 1.00879 0.04
v 0.121213 1.00879 -1.86265e-09
v 0.13 1.03 -1.86265e-09
v 0.13 1.03 0.04
v 0.121213 1.05121 0.04
v 0.121213 1.05121 -1.86265e-09
v 0.1 1.06 -1.86265e-09
v 0.1 1.06 0.04
v 0.078787 1.05121 0.04
v 0.078787 1.05121 -1.86265e-09
v 0.07 1.03 -1.86265e-09
v 0.07 1.03 0.04
v 0.078787 1.00879 0.04
v 0.078787 1.00879 -1.86265e-09
v 0.1 1 -1.86265e-09
v 0.1 1 0.04
v 0.089393 1.01939 0.04
v 0.1 1.015 0.04
v 0.110607 1.01939 0.04
v 0.115 1.03 0.04
v 0.110607 1.04061 0.04
v 0.1 1.045 0.04
v 0.089393 1.04061 0.04
v 0.085 1.03 0.04
v 0.110607 1.01939 0.1
v 0.115 1.03 0.1
v 0.110607 1.04061 0.1
v 0.1 1.045 0.1
v 0.089393 1.04061 0.1
v 0.085 1.03 0.1
v 0.089393 1.01939 0.1
v 0.1 1.015 0.1
v 0.0985 1.03 0.16
v 0.094 1.03 0.1
v 0.095757 1.02576 0.1
v 0.098939 1.02894 0.16
v 0.101061 1.02894 0.16
v 0.104243 1.02576 0.1
v 0.106 1.03 0.1
v 0.1015 1.03 0.16
v 0.101061 1.03106 0.16
v 0.104243 1.03424 0.1
v 0.1 1.036 0.1
v 0.1 1.0315 0.16
v 0.098939 1.03106 0.16
v 0.095757 1.03424 0.1
v 0.1 1.024 0.1
v 0.1 1.0285 0.16
v 0.1 1.03 0.16

# 269 UV coordinates
vt 0.469577 0.965777 0
vt 0.322028 0.965777 0
vt 0.322028 0.493514 0
vt 0.469577 0.493514 0
vt 0.342562 0.479346 0
vt 0.005063 0.479346 0
vt 0.005062 0.007084 0
vt 0.342562 0.007084 0
vt 0.845012 0.479346 0
vt 0.697463 0.479346 0
vt 0.697463 0.007084 0
vt 0.845012 0.007084 0
vt 0.971988 0.925861 0
vt 0.958488 0.925857 0
vt 0.958488 0.616158 0
vt 0.971988 0.616161 0
vt 0.626969 0.49148 0
vt 0.775468 0.491517 0
vt 0.775468 0.828147 0
vt 0.626969 0.82811 0
vt 0.622514 0.82882 0
vt 0.474018 0.82882 0
vt 0.474018 0.49149 0
vt 0.622514 0.49149 0
vt 0.690187 0.479346 0
vt 0.676687 0.465853 0
vt 0.676687 0.020577 0
vt 0.690187 0.007084 0
vt 0.352687 0.007084 0
vt 0.366187 0.020577 0
vt 0.366188 0.465853 0
vt 0.352688 0.479346 0
vt 0.972392 0.415763 0
vt 0.985892 0.415766 0
vt 0.985892 0.496557 0
vt 0.972392 0.496554 0
vt 0.94467 0.298537 0
vt 0.958084 0.298537 0
vt 0.958084 0.743813 0
vt 0.944671 0.743813 0
vt 0.958488 0.296513 0
vt 0.971987 0.296513 0
vt 0.971987 0.606857 0
vt 0.958488 0.606857 0
vt 0.944268 0.743813 0
vt 0.930855 0.743813 0
vt 0.930854 0.298537 0
vt 0.944268 0.298537 0
vt 0.315157 0.938385 0
vt 0.099157 0.655028 0
vt 0.099157 0.574069 0
vt 0.315157 0.493109 0
vt 0.004657 0.493109 0
vt 0.018157 0.574069 0
vt 0.018157 0.655028 0
vt 0.004658 0.938385 0
vt 0.706957 0.915371 0
vt 0.625957 0.915371 0
vt 0.625957 0.834412 0
vt 0.706957 0.834412 0
vt 0.985805 0.579943 0
vt 0.972391 0.579943 0
vt 0.972391 0.498984 0
vt 0.985805 0.498984 0
vt 0.624539 0.916054 0
vt 0.611039 0.916054 0
vt 0.611039 0.835095 0
vt 0.624539 0.835095 0
vt 0.764074 0.893376 0
vt 0.777487 0.893376 0
vt 0.777487 0.974335 0
vt 0.764074 0.974335 0
vt 0.872164 0.317999 0
vt 0.88171 0.32754 0
vt 0.86194 0.375246 0
vt 0.84844 0.375246 0
vt 0.872164 0.432493 0
vt 0.88171 0.422952 0
vt 0.929438 0.442712 0
vt 0.929438 0.456205 0
vt 0.923312 0.140328 0
vt 0.932858 0.13081 0
vt 0.980587 0.150541 0
vt 0.980587 0.164006 0
vt 0.899588 0.083195 0
vt 0.913088 0.083198 0
vt 0.923312 0.026073 0
vt 0.932858 0.035596 0
vt 0.980587 0.002424 0
vt 0.980587 0.015889 0
vt 0.886063 0.918617 0
vt 0.895608 0.909098 0
vt 0.943338 0.928829 0
vt 0.943338 0.942294 0
vt 0.84797 0.00425 0
vt 0.897628 0.00425 0
vt 0.897628 0.287608 0
vt 0.84797 0.287608 0
vt 0.826857 0.490681 0
vt 0.874587 0.490681 0
vt 0.874587 0.774038 0
vt 0.826857 0.774038 0
vt 0.779127 0.490681 0
vt 0.779127 0.774038 0
vt 0.876763 0.490681 0
vt 0.926421 0.490681 0
vt 0.926421 0.774038 0
vt 0.876763 0.774038 0
vt 0.79241 0.861677 0
vt 0.81218 0.813971 0
vt 0.859908 0.861677 0
vt 0.859908 0.929143 0
vt 0.81218 0.909382 0
vt 0.859908 0.79421 0
vt 0.980587 0.083215 0
vt 0.95869 0.990959 0
vt 0.95869 0.931399 0
vt 0.98569 0.931399 0
vt 0.98569 0.990959 0
vt 0.926588 0.282641 0
vt 0.926588 0.225394 0
vt 0.953588 0.225394 0
vt 0.953588 0.282641 0
vt 0.926588 0.168147 0
vt 0.953588 0.168147 0
vt 0.707767 0.917479 0
vt 0.707767 0.977038 0
vt 0.680767 0.977038 0
vt 0.680767 0.917479 0
vt 0.972595 0.352311 0
vt 0.972595 0.292752 0
vt 0.999595 0.292752 0
vt 0.999595 0.352311 0
vt 0.925778 0.225394 0
vt 0.925778 0.282641 0
vt 0.898778 0.282641 0
vt 0.898778 0.225394 0
vt 0.925778 0.168147 0
vt 0.898778 0.168147 0
vt 0.999595 0.354098 0
vt 0.999595 0.413657 0
vt 0.972595 0.413657 0
vt 0.972595 0.354098 0
vt 0.943338 0.780712 0
vt 0.943338 0.794177 0
vt 0.895608 0.813885 0
vt 0.886063 0.804361 0
vt 0.802634 0.918923 0
vt 0.859908 0.942636 0
vt 0.862338 0.861483 0
vt 0.875838 0.861486 0
vt 0.77891 0.861677 0
vt 0.802634 0.80443 0
vt 0.929438 0.294287 0
vt 0.929438 0.30778 0
vt 0.859908 0.780717 0
vt 0.604689 0.891986 0
vt 0.551035 0.891986 0
vt 0.549694 0.863362 0
vt 0.603349 0.863362 0
vt 0.763061 0.950267 0
vt 0.709062 0.950267 0
vt 0.708983 0.921644 0
vt 0.762981 0.921644 0
vt 0.708996 0.834056 0
vt 0.762651 0.834056 0
vt 0.763991 0.862679 0
vt 0.710337 0.862679 0
vt 0.603733 0.95083 0
vt 0.549733 0.95083 0
vt 0.54968 0.923029 0
vt 0.60368 0.923029 0
vt 0.549719 0.893702 0
vt 0.603719 0.893702 0
vt 0.551035 0.834739 0
vt 0.604689 0.834739 0
vt 0.709062 0.89302 0
vt 0.763061 0.89302 0
vt 0.762651 0.891303 0
vt 0.708996 0.891303 0
vt 0.518079 0.853701 0
vt 0.525829 0.835002 0
vt 0.547747 0.85691 0
vt 0.529039 0.864655 0
vt 0.547747 0.887892 0
vt 0.529039 0.880146 0
vt 0.518079 0.8911 0
vt 0.525829 0.909799 0
vt 0.494831 0.909799 0
vt 0.502581 0.8911 0
vt 0.491622 0.880146 0
vt 0.472913 0.887892 0
vt 0.472913 0.85691 0
vt 0.491622 0.864655 0
vt 0.502581 0.853701 0
vt 0.494831 0.835002 0
vt 0.47222 0.993248 0
vt 0.47222 0.912807 0
vt 0.486539 0.912138 0
vt 0.486539 0.992578 0
vt 0.530355 0.912136 0
vt 0.530355 0.993093 0
vt 0.516036 0.993133 0
vt 0.516036 0.912176 0
vt 0.954422 0.248757 0
vt 0.954422 0.168316 0
vt 0.968741 0.167646 0
vt 0.968741 0.248087 0
vt 0.62517 0.998785 0
vt 0.62517 0.917827 0
vt 0.639077 0.9178 0
vt 0.639077 0.998759 0
vt 0.653749 0.917819 0
vt 0.653749 0.998778 0
vt 0.500858 0.912807 0
vt 0.500858 0.993248 0
vt 0.501717 0.993093 0
vt 0.501717 0.912136 0
vt 0.98306 0.168316 0
vt 0.98306 0.248757 0
vt 0.95473 0.863276 0
vt 0.95043 0.944289 0
vt 0.944724 0.943718 0
vt 0.953304 0.863133 0
vt 0.956163 0.779658 0
vt 0.956163 0.860698 0
vt 0.95043 0.860662 0
vt 0.95473 0.779649 0
vt 0.976658 0.69373 0
vt 0.972362 0.612743 0
vt 0.978089 0.612727 0
vt 0.97809 0.693726 0
vt 0.956163 0.863285 0
vt 0.956163 0.944325 0
vt 0.976905 0.777144 0
vt 0.972361 0.696169 0
vt 0.977924 0.696159 0
vt 0.978296 0.777142 0
vt 0.983793 0.696169 0
vt 0.979763 0.777144 0
vt 0.944724 0.860091 0
vt 0.953304 0.779506 0
vt 0.983817 0.612743 0
vt 0.979521 0.69373 0
vt 0.764872 0.834349 0
vt 0.765968 0.833253 0
vt 0.767518 0.833253 0
vt 0.766743 0.835123 0
vt 0.768614 0.834349 0
vt 0.768614 0.835898 0
vt 0.764872 0.835898 0
vt 0.765968 0.836993 0
vt 0.767518 0.836993 0
vt 0.883493 0.971458 0
vt 0.888143 0.982678 0
vt 0.872644 0.982677 0
vt 0.877293 0.971458 0
vt 0.887877 0.96088 0
vt 0.899102 0.956233 0
vt 0.899102 0.971724 0
vt 0.887877 0.967076 0
vt 0.877293 0.956498 0
vt 0.872644 0.945279 0
vt 0.888143 0.945279 0
vt 0.883493 0.956498 0
vt 0.87291 0.96088 0
vt 0.861685 0.956233 0
vt 0.861685 0.971724 0
vt 0.87291 0.967076 0

# 73 vertex normals
vn -0.57735 -0.57735 -0.57735
vn -0.57735 -0.57735 0.57735
vn -0.57735 0.57735 0.57735
vn -0.57735 0.57735 -0.57735
vn 0.57735 -0.57735 -0.57735
vn 0.57735 0.57735 -0.57735
vn 0.57735 -0.57735 0.57735
vn 0.57735 0.57735 0.57735
vn -0.301511 -0.301511 0.904534
vn 0.301511 -0.301511 0.904534
vn 0.301511 0.301511 0.904534
vn -0.301511 0.301511 0.904534
vn 0.549013 0.630214 0.549013
vn 0.420291 0.804183 0.420291
vn 0 0.804228 0.594321
vn 0 0.630216 0.77642
vn -0.549013 0.630214 0.549013
vn -0.420291 0.804183 0.420291
vn -0.57714 0.780854 0.239117
vn -0.739112 0.60001 0.306105
vn 0.549013 -0.630214 0.549013
vn 0 -1 0
vn 0.739112 -0.60001 0.306105
vn 0 -0.630216 0.77642
vn -0.549013 -0.630214 0.549013
vn -0.739112 -0.60001 0.306105
vn 0.420291 -0.804183 0.420291
vn 0.57714 -0.780854 0.239117
vn -0.420291 -0.804183 0.420291
vn -0.57714 -0.780854 0.239117
vn 0 -0.804228 0.594321
vn 0.57714 0.780854 0.239117
vn 0 1 0
vn 0.739112 0.60001 0.306105
vn 0.549013 -0.549013 0.630214
vn 0.707107 -0.707107 0
vn 1 0 0
vn 0.77642 0 0.630216
vn 0.549013 0.549013 0.630214
vn 0.707107 0.707107 0
vn 0 0.77642 0.630216
vn -0.549013 0.549013 0.630214
vn -0.707107 0.707107 0
vn -1 0 0
vn -0.77642 0 0.630216
vn -0.549013 -0.549013 0.630214
vn -0.707107 -0.707107 0
vn 0 -0.77642 0.630216
vn -0.420291 -0.420291 0.804183
vn 0 -0.594321 0.804228
vn 0.420291 -0.420291 0.804183
vn 0.594321 0 0.804228
vn 0.420291 0.420291 0.804183
vn 0 0.594321 0.804228
vn -0.420291 0.420291 0.804183
vn -0.594321 0 0.804228
vn -0.752917 0 0.658115
vn -0.566002 0 0.824404
vn -0.400293 -0.400193 0.824385
vn -0.532395 -0.532295 0.658193
vn 0.532395 -0.532295 0.658193
vn 0.400293 -0.400193 0.824385
vn 0.566002 0 0.824404
vn 0.752917 0 0.658115
vn 0.532401 0.532401 0.658102
vn 0.400209 0.400209 0.824418
vn 0 0.566002 0.824404
vn 0 0.752868 0.658172
vn -0.532401 0.532401 0.658102
vn -0.400209 0.400209 0.824418
vn 0 -0.566002 0.824404
vn 0 -0.752917 0.658115
vn 0 0 1

# Mesh 'Cube.001_Cube.011_Cube.001_Cube.011' with 196 faces
g Cube.001_Cube.011_Cube.001_Cube.011
usemtl None
f 1/1/1 2/2/2 3/3/3
f 3/3/3 4/4/4 1/1/1
f 5/5/5 1/6/1 4/7/4
f 4/7/4 6/8/6 5/5/5
f 7/9/7 5/10/5 6/11/6
f 6/11/6 8/12/8 7/9/7
f 9/13/2 10/14/9 11/15/10
f 11/15/10 12/16/7 9/13/2
f 2/17/2 1/18/1 5/19/5
f 5/19/5 7/20/7 2/17/2
f 8/21/8 6/22/6 4/23/4
f 4/23/4 3/24/3 8/21/8
f 2/25/2 13/26/11 11/27/10
f 11/27/10 3/28/3 2/25/2
f 8/29/8 10/30/9 14/31/12
f 14/31/12 7/32/7 8/29/8
f 7/32/7 14/31/12 13/26/11
f 13/26/11 2/25/2 7/32/7
f 3/28/3 11/27/10 10/30/9
f 10/30/9 8/29/8 3/28/3
f 15/33/2 16/34/9 17/35/10
f 17/35/10 18/36/7 15/33/2
f 19/37/3 14/38/12 10/39/9
f 10/39/9 9/40/2 19/37/3
f 20/41/8 13/42/11 14/43/12
f 14/43/12 19/44/3 20/41/8
f 12/45/7 11/46/10 13/47/11
f 13/47/11 20/48/8 12/45/7
f 20/49/8 16/50/9 21/51/12
f 21/51/12 12/52/7 20/49/8
f 9/53/2 22/54/11 17/55/10
f 17/55/10 19/56/3 9/53/2
f 19/56/3 17/55/10 16/50/9
f 16/50/9 20/49/8 19/56/3
f 12/52/7 21/51/12 22/54/11
f 22/54/11 9/53/2 12/52/7
f 15/57/2 18/58/7 23/59/8
f 23/59/8 24/60/3 15/57/2
f 24/61/3 21/62/12 16/63/9
f 16/63/9 15/64/2 24/61/3
f 23/65/8 22/66/11 21/67/12
f 21/67/12 24/68/3 23/65/8
f 18/69/7 17/70/10 22/71/11
f 22/71/11 23/72/8 18/69/7
f 25/73/13 26/74/14 27/75/15
f 27/75/15 28/76/16 25/73/13
f 29/77/17 30/78/18 31/79/19
f 31/79/19 32/80/20 29/77/17
f 33/81/21 34/82/22 35/83/22
f 35/83/22 36/84/23 33/81/21
f 37/85/24 38/86/22 34/82/22
f 34/82/22 33/81/21 37/85/24
f 39/87/25 40/88/22 38/86/22
f 38/86/22 37/85/24 39/87/25
f 41/89/26 42/90/22 40/88/22
f 40/88/22 39/87/25 41/89/26
f 43/91/21 44/92/27 45/93/28
f 45/93/28 46/94/23 43/91/21
f 31/95/19 30/96/18 47/97/29
f 47/97/29 48/98/30 31/95/19
f 27/99/15 26/100/14 44/101/27
f 44/101/27 49/102/31 27/99/15
f 30/103/18 27/99/15 49/102/31
f 49/102/31 47/104/29 30/103/18
f 26/105/14 50/106/32 45/107/28
f 45/107/28 44/108/27 26/105/14
f 51/109/33 52/110/33 53/111/33
f 54/112/33 55/113/33 53/111/33
f 52/110/33 56/114/33 53/111/33
f 55/113/33 51/109/33 53/111/33
f 35/83/22 34/82/22 57/115/22
f 38/86/22 40/88/22 57/115/22
f 34/82/22 38/86/22 57/115/22
f 40/88/22 42/90/22 57/115/22
f 43/116/21 46/117/23 58/118/34
f 58/118/34 59/119/13 43/116/21
f 60/120/25 61/121/24 62/122/16
f 62/122/16 63/123/17 60/120/25
f 61/121/24 43/124/21 59/125/13
f 59/125/13 62/122/16 61/121/24
f 64/126/26 60/127/25 63/128/17
f 63/128/17 65/129/20 64/126/26
f 41/130/26 39/131/25 29/132/17
f 29/132/17 32/133/20 41/130/26
f 37/134/24 33/135/21 25/136/13
f 25/136/13 28/137/16 37/134/24
f 39/138/25 37/134/24 28/137/16
f 28/137/16 29/139/17 39/138/25
f 33/140/21 36/141/23 66/142/34
f 66/142/34 25/143/13 33/140/21
f 64/144/26 48/145/30 47/146/29
f 47/146/29 60/147/25 64/144/26
f 63/148/17 55/113/33 54/112/33
f 54/112/33 65/149/20 63/148/17
f 61/150/24 49/151/31 44/92/27
f 44/92/27 43/91/21 61/150/24
f 62/152/16 51/109/33 55/113/33
f 55/113/33 63/148/17 62/152/16
f 28/76/16 27/75/15 30/78/18
f 30/78/18 29/77/17 28/76/16
f 59/153/13 52/110/33 51/109/33
f 51/109/33 62/152/16 59/153/13
f 66/154/34 50/155/32 26/74/14
f 26/74/14 25/73/13 66/154/34
f 58/156/34 56/114/33 52/110/33
f 52/110/33 59/153/13 58/156/34
f 60/147/25 47/146/29 49/151/31
f 49/151/31 61/150/24 60/147/25
f 67/157/35 68/158/36 69/159/37
f 69/159/37 70/160/38 67/157/35
f 71/161/39 72/162/40 73/163/33
f 73/163/33 74/164/41 71/161/39
f 75/165/42 76/166/43 77/167/44
f 77/167/44 78/168/45 75/165/42
f 79/169/46 80/170/47 81/171/22
f 81/171/22 82/172/48 79/169/46
f 82/172/48 81/171/22 68/173/36
f 68/173/36 67/174/35 82/172/48
f 70/160/38 69/159/37 72/175/40
f 72/175/40 71/176/39 70/160/38
f 74/164/41 73/163/33 76/177/43
f 76/177/43 75/178/42 74/164/41
f 78/168/45 77/167/44 80/179/47
f 80/179/47 79/180/46 78/168/45
f 83/181/49 79/182/46 82/183/48
f 82/183/48 84/184/50 83/181/49
f 84/184/50 82/183/48 67/185/35
f 67/185/35 85/186/51 84/184/50
f 86/187/52 70/188/38 71/189/39
f 71/189/39 87/190/53 86/187/52
f 88/191/54 74/192/41 75/193/42
f 75/193/42 89/194/55 88/191/54
f 90/195/56 78/196/45 79/182/46
f 79/182/46 83/181/49 90/195/56
f 85/186/51 67/185/35 70/188/38
f 70/188/38 86/187/52 85/186/51
f 87/190/53 71/189/39 74/192/41
f 74/192/41 88/191/54 87/190/53
f 89/194/55 75/193/42 78/196/45
f 78/196/45 90/195/56 89/194/55
f 91/197/35 85/198/51 86/199/52
f 86/199/52 92/200/38 91/197/35
f 93/201/39 87/202/53 88/203/54
f 88/203/54 94/204/41 93/201/39
f 95/205/42 89/206/55 90/207/56
f 90/207/56 96/208/45 95/205/42
f 97/209/46 83/210/49 84/211/50
f 84/211/50 98/212/48 97/209/46
f 98/212/48 84/211/50 85/213/51
f 85/213/51 91/214/35 98/212/48
f 92/200/38 86/199/52 87/215/53
f 87/215/53 93/216/39 92/200/38
f 94/204/41 88/203/54 89/217/55
f 89/217/55 95/218/42 94/204/41
f 96/208/45 90/207/56 83/219/49
f 83/219/49 97/220/46 96/208/45
f 99/221/57 100/222/58 101/223/59
f 101/223/59 102/224/60 99/221/57
f 103/225/61 104/226/62 105/227/63
f 105/227/63 106/228/64 103/225/61
f 107/229/65 108/230/66 109/231/67
f 109/231/67 110/232/68 107/229/65
f 111/233/69 112/234/70 100/222/58
f 100/222/58 99/221/57 111/233/69
f 102/235/60 101/236/59 113/237/71
f 113/237/71 114/238/72 102/235/60
f 114/238/72 113/237/71 104/239/62
f 104/239/62 103/240/61 114/238/72
f 106/228/64 105/227/63 108/241/66
f 108/241/66 107/242/65 106/228/64
f 110/232/68 109/231/67 112/243/70
f 112/243/70 111/244/69 110/232/68
f 99/245/57 102/246/60 114/247/72
f 114/247/72 115/248/73 99/245/57
f 115/248/73 114/247/72 103/249/61
f 103/249/61 106/250/64 115/248/73
f 111/251/69 99/245/57 115/248/73
f 115/248/73 110/252/68 111/251/69
f 110/252/68 115/248/73 106/250/64
f 106/250/64 107/253/65 110/252/68
f 109/254/67 94/255/41 95/256/42
f 95/256/42 112/257/70 109/254/67
f 105/258/63 92/259/38 93/260/39
f 93/260/39 108/261/66 105/258/63
f 113/262/71 98/263/48 91/264/35
f 91/264/35 104/265/62 113/262/71
f 101/266/59 97/267/46 98/263/48
f 98/263/48 113/262/71 101/266/59
f 112/257/70 95/256/42 96/268/45
f 96/268/45 100/269/58 112/257/70
f 108/261/66 93/260/39 94/255/41
f 94/255/41 109/254/67 108/261/66
f 104/265/62 91/264/35 92/259/38
f 92/259/38 105/258/63 104/265/62
f 100/269/58 96/268/45 97/267/46
f 97/267/46 101/266/59 100/269/58

